<mxfile host="app.diagrams.net" modified="2024-07-25T09:49:51.131Z" agent="Mozilla/5.0 (Windows NT 10.0; Win64; x64) AppleWebKit/537.36 (KHTML, like Gecko) Chrome/126.0.0.0 Safari/537.36 Edg/126.0.0.0" etag="Dg45tvQeNh4vY_KSl-Rg" version="24.7.0" type="github">
  <diagram name="第 1 页" id="6uHglfkDmnM03bxgXmcF">
    <mxGraphModel dx="996" dy="541" grid="0" gridSize="10" guides="1" tooltips="1" connect="1" arrows="1" fold="1" page="1" pageScale="1" pageWidth="2336" pageHeight="1654" math="0" shadow="0">
      <root>
        <mxCell id="0" />
        <mxCell id="1" parent="0" />
        <mxCell id="MoUY0Sv37gTZe5W_f7Vc-1" value="&lt;font style=&quot;font-size: 16px;&quot; face=&quot;Comic Sans MS&quot;&gt;client&lt;/font&gt;" style="rounded=1;whiteSpace=wrap;html=1;fillColor=#dae8fc;strokeColor=#6c8ebf;" vertex="1" parent="1">
          <mxGeometry x="92" y="243" width="100" height="85" as="geometry" />
        </mxCell>
        <mxCell id="MoUY0Sv37gTZe5W_f7Vc-2" value="&lt;font style=&quot;font-size: 16px;&quot; face=&quot;Comic Sans MS&quot;&gt;MySQL&lt;/font&gt;" style="rounded=1;whiteSpace=wrap;html=1;fillColor=#e1d5e7;strokeColor=#9673a6;" vertex="1" parent="1">
          <mxGeometry x="273" y="243" width="100" height="85" as="geometry" />
        </mxCell>
        <mxCell id="MoUY0Sv37gTZe5W_f7Vc-3" value="" style="strokeWidth=2;html=1;shape=mxgraph.flowchart.annotation_2;align=left;labelPosition=right;pointerEvents=1;" vertex="1" parent="1">
          <mxGeometry x="373" y="236" width="50" height="100" as="geometry" />
        </mxCell>
        <mxCell id="MoUY0Sv37gTZe5W_f7Vc-4" value="&lt;font style=&quot;font-size: 16px;&quot; face=&quot;Comic Sans MS&quot;&gt;DB&lt;/font&gt;" style="strokeWidth=2;html=1;shape=mxgraph.flowchart.database;whiteSpace=wrap;fillColor=#d5e8d4;strokeColor=#82b366;" vertex="1" parent="1">
          <mxGeometry x="423" y="192" width="111" height="80" as="geometry" />
        </mxCell>
        <mxCell id="MoUY0Sv37gTZe5W_f7Vc-5" value="&lt;font face=&quot;Comic Sans MS&quot; style=&quot;font-size: 16px;&quot;&gt;DB&lt;/font&gt;" style="strokeWidth=2;html=1;shape=mxgraph.flowchart.database;whiteSpace=wrap;fillColor=#d5e8d4;strokeColor=#82b366;" vertex="1" parent="1">
          <mxGeometry x="423" y="300" width="111" height="80" as="geometry" />
        </mxCell>
        <mxCell id="MoUY0Sv37gTZe5W_f7Vc-7" value="表" style="verticalLabelPosition=bottom;verticalAlign=top;html=1;shape=process;whiteSpace=wrap;rounded=1;size=0.14;arcSize=6;" vertex="1" parent="1">
          <mxGeometry x="584" y="144" width="100" height="60" as="geometry" />
        </mxCell>
        <mxCell id="MoUY0Sv37gTZe5W_f7Vc-8" value="" style="strokeWidth=2;html=1;shape=mxgraph.flowchart.annotation_2;align=left;labelPosition=right;pointerEvents=1;" vertex="1" parent="1">
          <mxGeometry x="534" y="178" width="50" height="113" as="geometry" />
        </mxCell>
        <mxCell id="MoUY0Sv37gTZe5W_f7Vc-10" value="表" style="verticalLabelPosition=bottom;verticalAlign=top;html=1;shape=process;whiteSpace=wrap;rounded=1;size=0.14;arcSize=6;" vertex="1" parent="1">
          <mxGeometry x="584" y="262" width="100" height="60" as="geometry" />
        </mxCell>
        <mxCell id="MoUY0Sv37gTZe5W_f7Vc-12" value="" style="endArrow=none;html=1;rounded=0;entryX=0;entryY=0.5;entryDx=0;entryDy=0;" edge="1" parent="1" target="MoUY0Sv37gTZe5W_f7Vc-2">
          <mxGeometry width="50" height="50" relative="1" as="geometry">
            <mxPoint x="192" y="286" as="sourcePoint" />
            <mxPoint x="242" y="236" as="targetPoint" />
          </mxGeometry>
        </mxCell>
        <mxCell id="MoUY0Sv37gTZe5W_f7Vc-19" value="" style="swimlane;startSize=0;dashed=1;movable=0;resizable=0;rotatable=0;deletable=0;editable=0;locked=1;connectable=0;" vertex="1" parent="1">
          <mxGeometry x="406" y="105" width="306" height="345" as="geometry">
            <mxRectangle x="406" y="107" width="50" height="44" as="alternateBounds" />
          </mxGeometry>
        </mxCell>
        <mxCell id="MoUY0Sv37gTZe5W_f7Vc-20" value="" style="swimlane;startSize=0;dashed=1;movable=0;resizable=0;rotatable=0;deletable=0;editable=0;locked=1;connectable=0;" vertex="1" parent="1">
          <mxGeometry x="66.5" y="212.5" width="151" height="147" as="geometry">
            <mxRectangle x="32" y="282" width="50" height="44" as="alternateBounds" />
          </mxGeometry>
        </mxCell>
        <mxCell id="MoUY0Sv37gTZe5W_f7Vc-21" value="" style="swimlane;startSize=0;dashed=1;movable=0;resizable=0;rotatable=0;deletable=0;editable=0;locked=1;connectable=0;" vertex="1" parent="1">
          <mxGeometry x="260.5" y="178" width="125" height="217" as="geometry" />
        </mxCell>
        <mxCell id="MoUY0Sv37gTZe5W_f7Vc-22" value="Text" style="text;strokeColor=none;align=center;fillColor=none;html=1;verticalAlign=middle;whiteSpace=wrap;rounded=0;" vertex="1" parent="1">
          <mxGeometry x="478" y="260" width="60" height="30" as="geometry" />
        </mxCell>
        <mxCell id="MoUY0Sv37gTZe5W_f7Vc-23" value="Text" style="text;strokeColor=none;align=center;fillColor=none;html=1;verticalAlign=middle;whiteSpace=wrap;rounded=0;" vertex="1" parent="1">
          <mxGeometry x="478" y="260" width="60" height="30" as="geometry" />
        </mxCell>
        <mxCell id="MoUY0Sv37gTZe5W_f7Vc-24" value="&lt;font style=&quot;font-size: 16px;&quot; face=&quot;Comic Sans MS&quot;&gt;MySQL客户端&lt;/font&gt;" style="text;html=1;align=center;verticalAlign=middle;resizable=0;points=[];autosize=1;strokeColor=none;fillColor=none;" vertex="1" parent="1">
          <mxGeometry x="78" y="176" width="122" height="31" as="geometry" />
        </mxCell>
        <mxCell id="MoUY0Sv37gTZe5W_f7Vc-25" value="&lt;font style=&quot;font-size: 16px;&quot; face=&quot;Comic Sans MS&quot;&gt;MySQL服务端&lt;/font&gt;" style="text;html=1;align=center;verticalAlign=middle;resizable=0;points=[];autosize=1;strokeColor=none;fillColor=none;" vertex="1" parent="1">
          <mxGeometry x="263.5" y="140" width="122" height="31" as="geometry" />
        </mxCell>
        <mxCell id="MoUY0Sv37gTZe5W_f7Vc-26" value="&lt;font face=&quot;Comic Sans MS&quot;&gt;&lt;span style=&quot;font-size: 16px;&quot;&gt;“数据库”&lt;/span&gt;&lt;/font&gt;" style="text;html=1;align=center;verticalAlign=middle;resizable=0;points=[];autosize=1;strokeColor=none;fillColor=none;" vertex="1" parent="1">
          <mxGeometry x="511" y="71" width="79" height="31" as="geometry" />
        </mxCell>
        <mxCell id="MoUY0Sv37gTZe5W_f7Vc-27" value="&lt;font style=&quot;font-size: 16px;&quot; face=&quot;Comic Sans MS&quot;&gt;目录&lt;/font&gt;" style="text;html=1;align=center;verticalAlign=middle;resizable=0;points=[];autosize=1;strokeColor=none;fillColor=none;" vertex="1" parent="1">
          <mxGeometry x="452" y="158.5" width="50" height="31" as="geometry" />
        </mxCell>
      </root>
    </mxGraphModel>
  </diagram>
</mxfile>
